/vscmnt/brussel_pixiu_data/_data_brussel/112/vsc11236/PredSimResults/SUBJ07mtu3D/weighted-LRposFixed/trackIG/worker_05.mot
version=1
nRows=6
nColumns=50
inDegrees=yes
endheader
                time	         pelvis_tilt	         pelvis_list	     pelvis_rotation	           pelvis_tx	           pelvis_ty	           pelvis_tz	       hip_flexion_r	     hip_adduction_r	      hip_rotation_r	        knee_angle_r	       ankle_angle_r	         mtp_angle_r	       hip_flexion_l	     hip_adduction_l	      hip_rotation_l	        knee_angle_l	       ankle_angle_l	         mtp_angle_l	    lumbar_extension	      lumbar_bending	     lumbar_rotation	 ercspn_r/activation	 intobl_r/activation	 extobl_r/activation	    abd_r/activation	    add_r/activation	hamstrings_r/activation	bifemsh_r/activation	glut_max_r/activation	iliopsoas_r/activation	rect_fem_r/activation	  vasti_r/activation	gastroc_r/activation	 soleus_r/activation	tib_ant_r/activation	 ercspn_l/activation	 intobl_l/activation	 extobl_l/activation	    abd_l/activation	    add_l/activation	hamstrings_l/activation	bifemsh_l/activation	glut_max_l/activation	iliopsoas_l/activation	rect_fem_l/activation	  vasti_l/activation	gastroc_l/activation	 soleus_l/activation	tib_ant_l/activation	
          0.00000000	         -6.60672178	         -3.46755798	         10.21764730	          0.00000000	          0.84613778	         -0.01586677	         31.15523136	         -1.07915497	         -8.88247783	         -4.93427818	          6.98391670	          0.24977369	        -12.03607063	         -3.95622950	          6.07940483	         -6.70595402	          8.71947454	         27.83331281	         -5.95475886	          1.39380369	         -3.21614026	          0.08736769	          0.15724173	          0.02595377	          0.01000000	          0.19568712	          0.04902782	          0.18633980	          0.05131521	          0.08627160	          0.01000006	          0.01000000	          0.02848306	          0.01000000	          0.26817437	          0.06166298	          0.00999999	          0.01000000	          0.03872059	          0.07857507	          0.02640076	          0.13626049	          0.03514987	          0.42804942	          0.01000002	          0.01000000	          0.31037681	          0.27015487	          0.01713825	
          0.01180261	         -6.68444416	         -3.31957694	         10.12233428	          0.01601934	          0.84423483	         -0.01539948	         31.31176363	         -0.93390707	         -8.03584392	         -6.95855711	          6.73386692	          0.23056828	        -12.15323673	         -3.82993646	          5.53336284	         -8.44215642	          8.11548480	         29.52939584	         -5.74708136	          1.87118146	         -3.28735625	          0.07300656	          0.15523754	          0.02168760	          0.00999999	          0.19903356	          0.05210880	          0.15571006	          0.10173690	          0.07209064	          0.01000000	          0.00999999	          0.02380114	          0.01539635	          0.29196896	          0.08974778	          0.00999999	          0.01000002	          0.03235586	          0.11796803	          0.02527647	          0.11386257	          0.02937208	          0.42902656	          0.01000001	          0.01000000	          0.26351749	          0.25385070	          0.01432114	
          0.02360522	         -6.74623068	         -3.17290031	          9.96394329	          0.03231669	          0.84260228	         -0.01487787	         31.24315039	         -0.78895818	         -7.19933749	         -8.65638202	          6.38693224	          0.22631615	        -12.06930055	         -3.68316330	          4.93255307	        -10.60849102	          7.37408231	         31.20718226	         -5.52554414	          2.36807348	         -3.33505748	          0.07962429	          0.12972026	          0.01812269	          0.07334823	          0.20121123	          0.05676438	          0.13011512	          0.11178366	          0.06024069	          0.01000000	          0.00999999	          0.01988881	          0.01286556	          0.32437529	          0.11433985	          0.00999999	          0.01000000	          0.02703734	          0.10938090	          0.02380680	          0.09514633	          0.02454402	          0.41564561	          0.01000002	          0.01000001	          0.22020160	          0.23436793	          0.01196709	
          0.03540782	         -6.79312255	         -3.02140414	          9.74590903	          0.04866330	          0.84138424	         -0.01425493	         31.02745013	         -0.61885206	         -6.45457221	        -10.10755793	          6.00243425	          0.21029422	        -11.72345683	         -3.51601802	          4.28874885	        -13.26720288	          6.44412908	         32.78364453	         -5.31440867	          2.86930232	         -3.36066779	          0.08514490	          0.10839739	          0.01514376	          0.11230379	          0.21166194	          0.05037636	          0.10872735	          0.14274060	          0.05033858	          0.01000000	          0.01000000	          0.01661958	          0.01075078	          0.34249198	          0.14752817	          0.00999999	          0.01000000	          0.02259306	          0.11722067	          0.02342597	          0.07950658	          0.02050958	          0.38791326	          0.01000000	          0.01000000	          0.18400580	          0.19588194	          0.00999999	
          0.04721043	         -6.82408575	         -2.87338624	          9.47280179	          0.06488040	          0.84067126	         -0.01353851	         30.74322433	         -0.42483643	         -5.80173638	        -11.47098503	          5.74925980	          0.19911423	        -11.08541638	         -3.34306399	          3.59579406	        -16.43536708	          5.33343368	         34.03885688	         -5.12606315	          3.38115863	         -3.36200783	          0.08189954	          0.09057949	          0.01265449	          0.13985399	          0.20455831	          0.04741719	          0.09085522	          0.15484238	          0.04206414	          0.01000000	          0.03687390	          0.01388773	          0.01039998	          0.34983425	          0.17676142	          0.00999999	          0.01000000	          0.01887931	          0.12779708	          0.02390488	          0.06643764	          0.01713830	          0.34287831	          0.01000000	          0.00999999	          0.15375970	          0.16368370	          0.00999999	
          0.05901304	         -6.83973981	         -2.72974619	          9.14713137	          0.08083001	          0.84054092	         -0.01275058	         30.41349800	         -0.21732538	         -5.23731073	        -12.75486490	          5.58789463	          0.18793487	        -10.14765874	         -3.17491772	          2.83903273	        -20.08896345	          4.07743184	         34.65156350	         -4.96943346	          3.90218614	         -3.33783753	          0.07091764	          0.07569042	          0.01057440	          0.14692439	          0.17693886	          0.04747676	          0.07592083	          0.14141617	          0.03514981	          0.01000000	          0.11857818	          0.01160493	          0.01000000	          0.35609423	          0.19073579	          0.00999999	          0.01000000	          0.01577601	          0.14529042	          0.02140553	          0.05551692	          0.01432118	          0.28651743	          0.01000000	          0.00999999	          0.12848533	          0.13677807	          0.00999999	
